<?xml version="1.0" standalone="no"?>
<!DOCTYPE svg PUBLIC "-//W3C//DTD SVG 20010904//EN"
 "http://www.w3.org/TR/2001/REC-SVG-20010904/DTD/svg10.dtd">
<svg version="1.0" xmlns="http://www.w3.org/2000/svg"
 width="89.000000pt" height="89.000000pt" viewBox="0 0 89.000000 89.000000"
 preserveAspectRatio="xMidYMid meet">
<metadata>
Created by potrace 1.14, written by Peter Selinger 2001-2017
</metadata>
<g transform="translate(0.000000,89.000000) scale(0.100000,-0.100000)"
fill="#000000" stroke="none">
<path d="M622 798 l-2 -68 -70 0 -70 0 0 -305 0 -305 70 0 69 0 4 -63 3 -62 2
63 2 62 70 0 70 0 0 305 0 305 -70 0 -69 0 -4 68 -3 67 -2 -67z"/>
<path d="M251 498 c-1 -28 -2 -28 -71 -28 l-70 0 0 -175 0 -175 70 0 69 0 4
-57 3 -58 2 58 2 57 70 0 70 0 0 175 0 175 -69 0 c-68 0 -70 1 -74 28 l-4 27
-2 -27z"/>
</g>
</svg>
