<?xml version="1.0" encoding="UTF-8"?>
<!DOCTYPE svg PUBLIC "-//W3C//DTD SVG 1.1//EN" "http://www.w3.org/Graphics/SVG/1.1/DTD/svg11.dtd">
<svg xmlns="http://www.w3.org/2000/svg" xmlns:xlink="http://www.w3.org/1999/xlink" version="1.1" width="464px" height="263px" viewBox="-0.5 -0.5 464 263"><defs/><g><path d="M 391 236 C 391 227.72 406.67 221 426 221 C 435.28 221 444.18 222.58 450.75 225.39 C 457.31 228.21 461 232.02 461 236 L 461 246 C 461 254.28 445.33 261 426 261 C 406.67 261 391 254.28 391 246 Z" fill="#ffffff" stroke="#b1ddf0" stroke-width="3" stroke-miterlimit="10" pointer-events="all"/><path d="M 461 236 C 461 244.28 445.33 251 426 251 C 406.67 251 391 244.28 391 236" fill="none" stroke="#b1ddf0" stroke-width="3" stroke-miterlimit="10" pointer-events="all"/><path d="M 391 206 C 391 197.72 406.67 191 426 191 C 435.28 191 444.18 192.58 450.75 195.39 C 457.31 198.21 461 202.02 461 206 L 461 216 C 461 224.28 445.33 231 426 231 C 406.67 231 391 224.28 391 216 Z" fill="#ffffff" stroke="#b1ddf0" stroke-width="3" stroke-miterlimit="10" pointer-events="all"/><path d="M 461 206 C 461 214.28 445.33 221 426 221 C 406.67 221 391 214.28 391 206" fill="none" stroke="#b1ddf0" stroke-width="3" stroke-miterlimit="10" pointer-events="all"/><path d="M 391 176 C 391 167.72 406.67 161 426 161 C 435.28 161 444.18 162.58 450.75 165.39 C 457.31 168.21 461 172.02 461 176 L 461 186 C 461 194.28 445.33 201 426 201 C 406.67 201 391 194.28 391 186 Z" fill="#ffffff" stroke="#b1ddf0" stroke-width="3" stroke-miterlimit="10" pointer-events="all"/><path d="M 461 176 C 461 184.28 445.33 191 426 191 C 406.67 191 391 184.28 391 176" fill="none" stroke="#b1ddf0" stroke-width="3" stroke-miterlimit="10" pointer-events="all"/><path d="M 1 36 C 1 27.72 16.67 21 36 21 C 45.28 21 54.18 22.58 60.75 25.39 C 67.31 28.21 71 32.02 71 36 L 71 46 C 71 54.28 55.33 61 36 61 C 16.67 61 1 54.28 1 46 Z" fill="#ffffff" stroke="#b1ddf0" stroke-width="3" stroke-miterlimit="10" pointer-events="all"/><path d="M 71 36 C 71 44.28 55.33 51 36 51 C 16.67 51 1 44.28 1 36" fill="none" stroke="#b1ddf0" stroke-width="3" stroke-miterlimit="10" pointer-events="all"/><path d="M 1 26 C 1 17.72 16.67 11 36 11 C 45.28 11 54.18 12.58 60.75 15.39 C 67.31 18.21 71 22.02 71 26 L 71 36 C 71 44.28 55.33 51 36 51 C 16.67 51 1 44.28 1 36 Z" fill="#ffffff" stroke="#b1ddf0" stroke-width="3" stroke-miterlimit="10" pointer-events="all"/><path d="M 71 26 C 71 34.28 55.33 41 36 41 C 16.67 41 1 34.28 1 26" fill="none" stroke="#b1ddf0" stroke-width="3" stroke-miterlimit="10" pointer-events="all"/><path d="M 1 16 C 1 7.72 16.67 1 36 1 C 45.28 1 54.18 2.58 60.75 5.39 C 67.31 8.21 71 12.02 71 16 L 71 26 C 71 34.28 55.33 41 36 41 C 16.67 41 1 34.28 1 26 Z" fill="#ffffff" stroke="#b1ddf0" stroke-width="3" stroke-miterlimit="10" pointer-events="all"/><path d="M 71 16 C 71 24.28 55.33 31 36 31 C 16.67 31 1 24.28 1 16" fill="none" stroke="#b1ddf0" stroke-width="3" stroke-miterlimit="10" pointer-events="all"/><path d="M 391 36 C 391 27.72 406.67 21 426 21 C 435.28 21 444.18 22.58 450.75 25.39 C 457.31 28.21 461 32.02 461 36 L 461 46 C 461 54.28 445.33 61 426 61 C 406.67 61 391 54.28 391 46 Z" fill="#ffffff" stroke="#b1ddf0" stroke-width="3" stroke-miterlimit="10" pointer-events="all"/><path d="M 461 36 C 461 44.28 445.33 51 426 51 C 406.67 51 391 44.28 391 36" fill="none" stroke="#b1ddf0" stroke-width="3" stroke-miterlimit="10" pointer-events="all"/><path d="M 391 26 C 391 17.72 406.67 11 426 11 C 435.28 11 444.18 12.58 450.75 15.39 C 457.31 18.21 461 22.02 461 26 L 461 36 C 461 44.28 445.33 51 426 51 C 406.67 51 391 44.28 391 36 Z" fill="#ffffff" stroke="#b1ddf0" stroke-width="3" stroke-miterlimit="10" pointer-events="all"/><path d="M 461 26 C 461 34.28 445.33 41 426 41 C 406.67 41 391 34.28 391 26" fill="none" stroke="#b1ddf0" stroke-width="3" stroke-miterlimit="10" pointer-events="all"/><path d="M 391 16 C 391 7.72 406.67 1 426 1 C 435.28 1 444.18 2.58 450.75 5.39 C 457.31 8.21 461 12.02 461 16 L 461 26 C 461 34.28 445.33 41 426 41 C 406.67 41 391 34.28 391 26 Z" fill="#ffffff" stroke="#b1ddf0" stroke-width="3" stroke-miterlimit="10" pointer-events="all"/><path d="M 461 16 C 461 24.28 445.33 31 426 31 C 406.67 31 391 24.28 391 16" fill="none" stroke="#b1ddf0" stroke-width="3" stroke-miterlimit="10" pointer-events="all"/><path d="M 1 236 C 1 227.72 16.67 221 36 221 C 45.28 221 54.18 222.58 60.75 225.39 C 67.31 228.21 71 232.02 71 236 L 71 246 C 71 254.28 55.33 261 36 261 C 16.67 261 1 254.28 1 246 Z" fill="#ffffff" stroke="#b1ddf0" stroke-width="3" stroke-miterlimit="10" pointer-events="all"/><path d="M 71 236 C 71 244.28 55.33 251 36 251 C 16.67 251 1 244.28 1 236" fill="none" stroke="#b1ddf0" stroke-width="3" stroke-miterlimit="10" pointer-events="all"/><path d="M 1 206 C 1 197.72 16.67 191 36 191 C 45.28 191 54.18 192.58 60.75 195.39 C 67.31 198.21 71 202.02 71 206 L 71 216 C 71 224.28 55.33 231 36 231 C 16.67 231 1 224.28 1 216 Z" fill="#ffffff" stroke="#b1ddf0" stroke-width="3" stroke-miterlimit="10" pointer-events="all"/><path d="M 71 206 C 71 214.28 55.33 221 36 221 C 16.67 221 1 214.28 1 206" fill="none" stroke="#b1ddf0" stroke-width="3" stroke-miterlimit="10" pointer-events="all"/><path d="M 1 176 C 1 167.72 16.67 161 36 161 C 45.28 161 54.18 162.58 60.75 165.39 C 67.31 168.21 71 172.02 71 176 L 71 186 C 71 194.28 55.33 201 36 201 C 16.67 201 1 194.28 1 186 Z" fill="#ffffff" stroke="#b1ddf0" stroke-width="3" stroke-miterlimit="10" pointer-events="all"/><path d="M 71 176 C 71 184.28 55.33 191 36 191 C 16.67 191 1 184.28 1 176" fill="none" stroke="#b1ddf0" stroke-width="3" stroke-miterlimit="10" pointer-events="all"/><path d="M 81 231 L 381 61" fill="none" stroke="#b1ddf0" stroke-width="2" stroke-miterlimit="10" pointer-events="stroke"/><path d="M 381 231 L 81 61" fill="none" stroke="#b1ddf0" stroke-width="2" stroke-miterlimit="10" pointer-events="stroke"/><path d="M 131 156 C 131 147.72 173.53 141 226 141 C 251.2 141 275.36 142.58 293.18 145.39 C 310.99 148.21 321 152.02 321 156 L 321 186 C 321 194.28 278.47 201 226 201 C 173.53 201 131 194.28 131 186 Z" fill="#ffffff" stroke="#b1ddf0" stroke-width="6" stroke-miterlimit="10" pointer-events="all"/><path d="M 321 156 C 321 164.28 278.47 171 226 171 C 173.53 171 131 164.28 131 156" fill="none" stroke="#b1ddf0" stroke-width="6" stroke-miterlimit="10" pointer-events="all"/><path d="M 131 116 C 131 107.72 173.53 101 226 101 C 251.2 101 275.36 102.58 293.18 105.39 C 310.99 108.21 321 112.02 321 116 L 321 146 C 321 154.28 278.47 161 226 161 C 173.53 161 131 154.28 131 146 Z" fill="#ffffff" stroke="#b1ddf0" stroke-width="6" stroke-miterlimit="10" pointer-events="all"/><path d="M 321 116 C 321 124.28 278.47 131 226 131 C 173.53 131 131 124.28 131 116" fill="none" stroke="#b1ddf0" stroke-width="6" stroke-miterlimit="10" pointer-events="all"/><path d="M 131 76 C 131 67.72 173.53 61 226 61 C 251.2 61 275.36 62.58 293.18 65.39 C 310.99 68.21 321 72.02 321 76 L 321 106 C 321 114.28 278.47 121 226 121 C 173.53 121 131 114.28 131 106 Z" fill="#ffffff" stroke="#b1ddf0" stroke-width="6" stroke-miterlimit="10" pointer-events="all"/><path d="M 321 76 C 321 84.28 278.47 91 226 91 C 173.53 91 131 84.28 131 76" fill="none" stroke="#b1ddf0" stroke-width="6" stroke-miterlimit="10" pointer-events="all"/><path d="M 131 36 C 131 27.72 173.53 21 226 21 C 251.2 21 275.36 22.58 293.18 25.39 C 310.99 28.21 321 32.02 321 36 L 321 66 C 321 74.28 278.47 81 226 81 C 173.53 81 131 74.28 131 66 Z" fill="#ffffff" stroke="#b1ddf0" stroke-width="6" stroke-miterlimit="10" pointer-events="all"/><path d="M 321 36 C 321 44.28 278.47 51 226 51 C 173.53 51 131 44.28 131 36" fill="none" stroke="#b1ddf0" stroke-width="6" stroke-miterlimit="10" pointer-events="all"/></g></svg>