<?xml version="1.0" encoding="UTF-8"?>
<!DOCTYPE svg PUBLIC "-//W3C//DTD SVG 1.1//EN" "http://www.w3.org/Graphics/SVG/1.1/DTD/svg11.dtd">
<svg xmlns="http://www.w3.org/2000/svg" xmlns:xlink="http://www.w3.org/1999/xlink" version="1.1" width="163px" height="203px" viewBox="-0.5 -0.5 163 203"><defs/><g><path d="M 1 1 L 1 201" fill="none" stroke="#b1ddf0" stroke-width="2" stroke-miterlimit="10" pointer-events="stroke"/><path d="M 161 41 L 161 201" fill="none" stroke="#b1ddf0" stroke-width="2" stroke-miterlimit="10" pointer-events="stroke"/><path d="M 1 201 L 161 201" fill="none" stroke="#b1ddf0" stroke-width="2" stroke-miterlimit="10" pointer-events="stroke"/><path d="M 1 1 L 121 1" fill="none" stroke="#b1ddf0" stroke-width="2" stroke-miterlimit="10" pointer-events="stroke"/><path d="M 121 1 L 161 41" fill="none" stroke="#b1ddf0" stroke-width="2" stroke-miterlimit="10" pointer-events="stroke"/><path d="M 121 41 L 161 41" fill="none" stroke="#b1ddf0" stroke-width="2" stroke-miterlimit="10" pointer-events="stroke"/><path d="M 121 41 L 121 1" fill="none" stroke="#b1ddf0" stroke-width="2" stroke-miterlimit="10" pointer-events="stroke"/><path d="M 21 81 L 141 81" fill="none" stroke="#b1ddf0" stroke-width="3" stroke-miterlimit="10" pointer-events="stroke"/><path d="M 21 91 L 141 91" fill="none" stroke="#b1ddf0" stroke-width="3" stroke-miterlimit="10" pointer-events="stroke"/><path d="M 21 101 L 141 101" fill="none" stroke="#b1ddf0" stroke-width="3" stroke-miterlimit="10" pointer-events="stroke"/><path d="M 21 111 L 141 111" fill="none" stroke="#b1ddf0" stroke-width="3" stroke-miterlimit="10" pointer-events="stroke"/><path d="M 21 61 L 141 61" fill="none" stroke="#b1ddf0" stroke-width="5" stroke-miterlimit="10" pointer-events="stroke"/><path d="M 81 131 L 141 131" fill="none" stroke="#b1ddf0" stroke-width="3" stroke-miterlimit="10" pointer-events="stroke"/><path d="M 81 141 L 141 141" fill="none" stroke="#b1ddf0" stroke-width="3" stroke-miterlimit="10" pointer-events="stroke"/><path d="M 81 151 L 141 151" fill="none" stroke="#b1ddf0" stroke-width="3" stroke-miterlimit="10" pointer-events="stroke"/><path d="M 81 161 L 141 161" fill="none" stroke="#b1ddf0" stroke-width="3" stroke-miterlimit="10" pointer-events="stroke"/><path d="M 81 171 L 141 171" fill="none" stroke="#b1ddf0" stroke-width="3" stroke-miterlimit="10" pointer-events="stroke"/><path d="M 81 181 L 141 181" fill="none" stroke="#b1ddf0" stroke-width="3" stroke-miterlimit="10" pointer-events="stroke"/><ellipse cx="46" cy="156" rx="25" ry="25" fill="#ffffff" stroke="#b1ddf0" stroke-width="2" pointer-events="all"/><path d="M 46 131 L 46 156 L 56 179 M 46 156 L 69.5 147.5" fill="none" stroke="#b1ddf0" stroke-width="2" stroke-miterlimit="10" pointer-events="all"/></g></svg>