<?xml version="1.0" encoding="UTF-8"?>
<!DOCTYPE svg PUBLIC "-//W3C//DTD SVG 1.1//EN" "http://www.w3.org/Graphics/SVG/1.1/DTD/svg11.dtd">
<svg xmlns="http://www.w3.org/2000/svg" xmlns:xlink="http://www.w3.org/1999/xlink" version="1.1" width="273px" height="115px" viewBox="-0.5 -0.5 273 115"><defs/><g><path d="M 10 72 L 10 62" fill="none" stroke="#b1ddf0" stroke-width="4" stroke-miterlimit="10" pointer-events="stroke"/><path d="M 20 72 L 20 52" fill="none" stroke="#b1ddf0" stroke-width="4" stroke-miterlimit="10" pointer-events="stroke"/><path d="M 30 72 L 30 42" fill="none" stroke="#b1ddf0" stroke-width="4" stroke-miterlimit="10" pointer-events="stroke"/><path d="M 40 72 L 40 32" fill="none" stroke="#b1ddf0" stroke-width="4" stroke-miterlimit="10" pointer-events="stroke"/><path d="M 120 102 L 120 72" fill="none" stroke="#b1ddf0" stroke-width="4" stroke-miterlimit="10" pointer-events="stroke"/><path d="M 130 112 L 130 72" fill="none" stroke="#b1ddf0" stroke-width="4" stroke-miterlimit="10" pointer-events="stroke"/><path d="M 140 112 L 140 72" fill="none" stroke="#b1ddf0" stroke-width="4" stroke-miterlimit="10" pointer-events="stroke"/><path d="M 150 102 L 150 72" fill="none" stroke="#b1ddf0" stroke-width="4" stroke-miterlimit="10" pointer-events="stroke"/><path d="M 200 72 L 200 42" fill="none" stroke="#b1ddf0" stroke-width="4" stroke-miterlimit="10" pointer-events="stroke"/><path d="M 190 72 L 190 52" fill="none" stroke="#b1ddf0" stroke-width="4" stroke-miterlimit="10" pointer-events="stroke"/><path d="M 50 72 L 50 42" fill="none" stroke="#b1ddf0" stroke-width="4" stroke-miterlimit="10" pointer-events="stroke"/><path d="M 60 72 L 60 52" fill="none" stroke="#b1ddf0" stroke-width="4" stroke-miterlimit="10" pointer-events="stroke"/><path d="M 70 72 L 70 62" fill="none" stroke="#b1ddf0" stroke-width="4" stroke-miterlimit="10" pointer-events="stroke"/><path d="M 80 72 L 80 82" fill="none" stroke="#b1ddf0" stroke-width="4" stroke-miterlimit="10" pointer-events="stroke"/><path d="M 90 72 L 90 92" fill="none" stroke="#b1ddf0" stroke-width="4" stroke-miterlimit="10" pointer-events="stroke"/><path d="M 100 72 L 100 102" fill="none" stroke="#b1ddf0" stroke-width="4" stroke-miterlimit="10" pointer-events="stroke"/><path d="M 110 92 L 110 72" fill="none" stroke="#b1ddf0" stroke-width="4" stroke-miterlimit="10" pointer-events="stroke"/><path d="M 160 92 L 160 72" fill="none" stroke="#b1ddf0" stroke-width="4" stroke-miterlimit="10" pointer-events="stroke"/><path d="M 170 82 L 170 72" fill="none" stroke="#b1ddf0" stroke-width="4" stroke-miterlimit="10" pointer-events="stroke"/><path d="M 180 72 L 180 62" fill="none" stroke="#b1ddf0" stroke-width="4" stroke-miterlimit="10" pointer-events="stroke"/><path d="M 210 72 L 210 32" fill="none" stroke="#b1ddf0" stroke-width="4" stroke-miterlimit="10" pointer-events="stroke"/><path d="M 220 72 L 220 22" fill="none" stroke="#b1ddf0" stroke-width="4" stroke-miterlimit="10" pointer-events="stroke"/><path d="M 230 72 L 230 12" fill="none" stroke="#b1ddf0" stroke-width="4" stroke-miterlimit="10" pointer-events="stroke"/><path d="M 240 72 L 240 2" fill="none" stroke="#b1ddf0" stroke-width="4" stroke-miterlimit="10" pointer-events="stroke"/><path d="M 250 72 L 250 12" fill="none" stroke="#b1ddf0" stroke-width="4" stroke-miterlimit="10" pointer-events="stroke"/><path d="M 260 72 L 260 22" fill="none" stroke="#b1ddf0" stroke-width="4" stroke-miterlimit="10" pointer-events="stroke"/><path d="M 270 72 L 270 32" fill="none" stroke="#b1ddf0" stroke-width="4" stroke-miterlimit="10" pointer-events="stroke"/><path d="M 0 72 L 32 48 Q 40 42 47.07 49.07 L 72.93 74.93 Q 80 82 89.49 78.84 L 100.51 75.16 Q 110 72 117.07 79.07 L 132.93 94.93 Q 140 102 147.81 95.75 L 232.19 28.25 Q 240 22 249.49 25.16 L 270 32" fill="none" stroke="#b1ddf0" stroke-miterlimit="10" pointer-events="stroke"/><path d="M 0 82 L 20.51 75.16 Q 30 72 37.07 64.93 L 43.54 58.46 Q 50 52 60 52 L 65 52 Q 70 52 78.94 56.47 L 101.06 67.53 Q 110 72 120 72 L 130 72 Q 140 72 149.28 68.29 L 230.72 35.71 Q 240 32 249.49 35.16 L 270 42" fill="none" stroke="#b1ddf0" stroke-miterlimit="10" pointer-events="stroke"/></g></svg>