<?xml version="1.0" encoding="UTF-8"?>
<!DOCTYPE svg PUBLIC "-//W3C//DTD SVG 1.1//EN" "http://www.w3.org/Graphics/SVG/1.1/DTD/svg11.dtd">
<svg xmlns="http://www.w3.org/2000/svg" xmlns:xlink="http://www.w3.org/1999/xlink" version="1.1" width="274px" height="274px" viewBox="-0.5 -0.5 274 274"><defs/><g><path d="M 119.92 271 L 119.92 237.57 C 119.92 220.04 112.12 203.52 98.86 193 C 72.42 173.53 60.99 138.15 70.64 105.64 C 80.29 73.12 108.77 50.99 140.99 50.99 C 173.21 50.99 201.69 73.12 211.34 105.64 C 220.99 138.15 209.56 173.53 183.12 193 C 169.86 203.52 162.06 220.04 162.06 237.57 L 162.06 271 Z" fill="#ffffff" stroke="#b1ddf0" stroke-width="5" stroke-miterlimit="10" pointer-events="all"/><path d="M 140.99 143.97 L 140.99 248.71 M 119.92 248.71 L 162.06 248.71" fill="#ffffff" stroke="#b1ddf0" stroke-width="5" stroke-miterlimit="10" pointer-events="all"/><ellipse cx="140.99" cy="137.29" rx="6.319947333772218" ry="6.685575364667748" fill="transparent" stroke="#b1ddf0" stroke-width="5" pointer-events="all"/><path d="M 231 81 L 261 61" fill="none" stroke="#b1ddf0" stroke-width="3" stroke-miterlimit="10" pointer-events="stroke"/><path d="M 21 61 L 51 81" fill="none" stroke="#b1ddf0" stroke-width="3" stroke-miterlimit="10" pointer-events="stroke"/><path d="M 231 121 L 271 121" fill="none" stroke="#b1ddf0" stroke-width="3" stroke-miterlimit="10" pointer-events="stroke"/><path d="M 1 121 L 41 121" fill="none" stroke="#b1ddf0" stroke-width="3" stroke-miterlimit="10" pointer-events="stroke"/><path d="M 141 31 L 141 1" fill="none" stroke="#b1ddf0" stroke-width="3" stroke-miterlimit="10" pointer-events="stroke"/><path d="M 201 51 L 221 21" fill="none" stroke="#b1ddf0" stroke-width="3" stroke-miterlimit="10" pointer-events="stroke"/><path d="M 81 51 L 61 21" fill="none" stroke="#b1ddf0" stroke-width="3" stroke-miterlimit="10" pointer-events="stroke"/><path d="M 231 161 L 261 171" fill="none" stroke="#b1ddf0" stroke-width="3" stroke-miterlimit="10" pointer-events="stroke"/><path d="M 11 171 L 41 161" fill="none" stroke="#b1ddf0" stroke-width="3" stroke-miterlimit="10" pointer-events="stroke"/></g></svg>