<?xml version="1.0" encoding="UTF-8"?>
<!DOCTYPE svg PUBLIC "-//W3C//DTD SVG 1.1//EN" "http://www.w3.org/Graphics/SVG/1.1/DTD/svg11.dtd">
<svg xmlns="http://www.w3.org/2000/svg" xmlns:xlink="http://www.w3.org/1999/xlink" version="1.1" width="259px" height="321px" viewBox="-0.5 -0.5 259 321"><defs/><g><path d="M 169 289 L 169 109" fill="none" stroke="#b1ddf0" stroke-width="18" stroke-miterlimit="10" pointer-events="stroke"/><path d="M 129 229 L 129 149" fill="none" stroke="#b1ddf0" stroke-width="18" stroke-miterlimit="10" pointer-events="stroke"/><path d="M 89 289 L 89 179" fill="none" stroke="#b1ddf0" stroke-width="18" stroke-miterlimit="10" pointer-events="stroke"/><path d="M 49 289 L 49 199" fill="none" stroke="#b1ddf0" stroke-width="18" stroke-miterlimit="10" pointer-events="stroke"/><path d="M 9 289 L 9 209" fill="none" stroke="#b1ddf0" stroke-width="18" stroke-miterlimit="10" pointer-events="stroke"/><path d="M 209 289 L 209 69" fill="none" stroke="#b1ddf0" stroke-width="18" stroke-miterlimit="10" pointer-events="stroke"/><path d="M 249 289 L 249 9" fill="none" stroke="#b1ddf0" stroke-width="18" stroke-miterlimit="10" pointer-events="stroke"/><path d="M 128.87 293.7 C 142.65 293.7 153.32 282.62 153.32 269.14 C 153.32 257.01 144 244.83 128.4 244.83 C 117.23 244.83 104.54 254 104.54 269.3 C 104.54 282.06 114.82 293.7 128.87 293.7 Z M 122.31 319 C 118.56 318.35 114.85 317.52 111.35 316.1 L 111.56 307.87 C 108.96 306.87 106.37 305.41 103.78 303.3 L 96.49 307.6 C 93.91 304.98 91.35 302.41 88.78 299.2 L 93.52 292.16 C 92 290.2 90.28 287.21 89.32 283.98 L 81.05 283.92 C 80.18 280.6 79.44 276.96 79 272.54 L 86.68 269.53 C 86.52 266.76 86.94 262.87 87.48 260.09 L 80.83 255.52 C 81.95 251.98 83.26 248.48 85.14 245.11 L 93.26 246.65 C 94.63 244.03 96.68 241.59 99.07 239.24 L 95.81 231.84 C 98.49 229.3 101.69 227.11 105.13 225.08 L 111.2 230.7 C 114.13 229.26 117.51 228.3 119.99 228.01 L 121.33 219.71 C 125.2 219.05 129.28 219 132.77 219.37 L 134.67 227.15 C 137.67 227.63 140.69 228.31 143.78 229.47 L 149.3 223.51 C 152.73 225.03 156.06 227.07 158.99 229.26 L 156.56 236.89 C 159 239.29 161.39 241.63 162.72 243.88 L 170.77 241.84 C 172.9 245.1 174.55 248.45 175.83 251.88 L 169.54 256.98 C 170.43 260.1 170.95 263.6 171.12 266.33 L 179 268.78 C 178.84 272.58 178.53 277.28 177.77 280.02 L 169.52 281.02 C 168.72 284.21 167.52 287.02 166.12 289.61 L 171.29 296.06 C 169.69 298.64 167.05 302.07 164.22 304.83 L 156.84 301.11 C 154.98 302.93 152.32 304.89 149.29 306.25 L 150.07 314.64 C 146.89 316.18 143.33 317.39 139.47 318.34 L 135.28 311.1 C 132.74 311.59 128.75 311.88 125.94 311.45 Z" fill="#b1ddf0" stroke="#ffffff" stroke-width="3" stroke-miterlimit="10" pointer-events="all"/><ellipse cx="129" cy="269" rx="20" ry="20" fill="#b1ddf0" stroke="#ffffff" stroke-width="3" pointer-events="all"/></g></svg>