<?xml version="1.0" encoding="UTF-8"?>
<!DOCTYPE svg PUBLIC "-//W3C//DTD SVG 1.1//EN" "http://www.w3.org/Graphics/SVG/1.1/DTD/svg11.dtd">
<svg xmlns="http://www.w3.org/2000/svg" xmlns:xlink="http://www.w3.org/1999/xlink" version="1.1" width="309px" height="329px" viewBox="-0.5 -0.5 309 329"><defs/><g><ellipse cx="147" cy="147" rx="20" ry="20" fill="#b1ddf0" stroke="none" pointer-events="all"/><path d="M 132 327 L 142 157 L 152 157 L 162 327 Z" fill="#b1ddf0" stroke="none" pointer-events="all"/><ellipse cx="147" cy="147" rx="60" ry="60" fill="transparent" stroke="#b1ddf0" stroke-width="12" pointer-events="all"/><ellipse cx="147" cy="147" rx="100" ry="100" fill="transparent" stroke="#b1ddf0" stroke-width="12" pointer-events="all"/><ellipse cx="147.01" cy="147" rx="141.875" ry="141.875" fill="transparent" stroke="#b1ddf0" stroke-width="12" pointer-events="all"/><path d="M 110.5 197 L 240.5 237 L 110.5 277 Z" fill="#ffffff" stroke="none" transform="rotate(249.5,175.5,237)" pointer-events="all"/><path d="M 136 180 L 266 220 L 136 260 Z" fill="#ffffff" stroke="none" transform="rotate(-135,201,220)" pointer-events="all"/><rect x="161.62" y="193.5" width="129" height="38" fill="#ffffff" stroke="none" transform="rotate(30,226.12,212.5)" pointer-events="all"/><rect x="167" y="190" width="129" height="38" fill-opacity="0.9" fill="#ffffff" stroke="none" transform="rotate(30,231.5,209)" pointer-events="all"/><path d="M 176 181.6 L 306 188.6 L 176 195.6 Z" fill-opacity="0.8" fill="#ffffff" stroke="none" transform="rotate(207,241,188.6)" pointer-events="all"/><path d="M 176 162.9 L 306 177.1 L 176 191.3 Z" fill-opacity="0.6" fill="#ffffff" stroke="none" transform="rotate(197.7,241,177.1)" pointer-events="all"/></g></svg>