<svg id="svg" version="1.1" xmlns="http://www.w3.org/2000/svg" xmlns:xlink="http://www.w3.org/1999/xlink" width="400" height="474.6666666666667" viewBox="0, 0, 400,474.6666666666667"><g id="svgg"><path id="path0" d="M94.081 195.028 C 93.356 195.536,93.310 196.251,93.234 208.272 C 93.190 215.261,93.106 221.027,93.048 221.086 C 92.989 221.144,76.261 221.198,55.873 221.204 L 18.805 221.216 18.902 317.108 L 19.000 413.000 56.100 413.102 L 93.200 413.204 93.280 440.302 C 93.324 455.206,93.327 467.940,93.286 468.600 C 93.101 471.634,93.038 471.600,98.808 471.600 L 104.000 471.600 104.000 442.402 L 104.000 413.204 141.300 413.102 L 178.600 413.000 178.709 318.000 C 178.819 223.022,178.802 221.116,177.889 221.232 C 177.620 221.267,160.885 221.273,140.700 221.247 L 104.000 221.200 104.000 208.000 C 104.000 195.716,103.951 194.796,103.300 194.746 C 99.120 194.427,94.749 194.560,94.081 195.028 " stroke="none" fill="#ec5454" fill-rule="evenodd"></path><path id="path1" d="M291.540 14.190 C 290.826 15.261,290.890 11.983,290.843 49.500 L 290.800 82.800 254.300 82.805 C 234.225 82.808,217.396 82.919,216.903 83.051 L 216.006 83.292 216.003 247.422 C 216.001 366.959,216.120 411.627,216.443 411.826 C 216.751 412.017,216.721 412.204,216.343 412.444 C 215.930 412.706,215.991 412.804,216.600 412.855 C 217.040 412.892,217.580 412.964,217.800 413.015 C 218.020 413.066,234.535 413.128,254.500 413.154 L 290.800 413.200 290.800 443.800 L 290.800 474.400 296.000 474.400 L 301.200 474.400 301.200 443.800 L 301.200 413.200 336.300 413.163 C 366.743 413.131,375.279 413.063,375.949 412.848 C 376.031 412.822,375.874 412.530,375.600 412.200 C 375.256 411.785,375.241 411.600,375.551 411.600 C 375.882 411.600,376.000 368.640,376.000 247.776 C 376.000 116.824,375.900 84.013,375.500 84.253 C 375.111 84.487,375.113 84.414,375.508 83.926 C 376.380 82.849,375.410 82.820,337.829 82.806 C 317.825 82.798,301.404 82.737,301.337 82.670 C 301.270 82.604,301.194 66.990,301.168 47.974 C 301.141 28.958,301.033 13.625,300.927 13.900 C 300.681 14.535,299.966 14.559,300.100 13.927 C 300.300 12.981,292.179 13.231,291.540 14.190 " stroke="none" fill="#24a49c" fill-rule="evenodd"></path><path id="path2" d="" stroke="none" fill="#f07c78" fill-rule="evenodd"></path><path id="path3" d="" stroke="none" fill="#587c78" fill-rule="evenodd"></path><path id="path4" d="" stroke="none" fill="#24a878" fill-rule="evenodd"></path></g></svg>